# xmcd
#
# Track frame offsets:
# 150
# 22307
# 47706
#
# Disc length: 1139 seconds
#
# Revision: 0
# Processed by: cddbd v1.5.2PL0 Copyright (c) Steve Scherf et al.
# Submitted via: Audion 3.0.2 (http://www.panic.com/audion/)
#
DISCID=23047103
DTITLE=Chris de Burgh - Moonfleet and other stories (Bonus CD)
DYEAR=1900
DGENRE=
TTITLE0=Missing you
TTITLE1=Moonlight and vodka
TTITLE2=Medley: The words ´I Love you´ - Ball Masque - Ship to shore - Live for the day 
EXTD=
EXTT0=
EXTT1=
EXTT2=
PLAYORDER=
